<svg width="197" height="78" viewBox="0 0 197 78" fill="none" xmlns="http://www.w3.org/2000/svg">
<path d="M14.3042 18.876C18.4497 18.876 21.4746 19.7695 23.3789 21.5566C25.2832 23.3291 26.2354 25.7754 26.2354 28.8955C26.2354 30.3018 26.0229 31.6494 25.5981 32.9385C25.1733 34.2129 24.4775 35.3481 23.5107 36.3442C22.5586 37.3403 21.2842 38.1313 19.6875 38.7173C18.0908 39.2886 16.1206 39.5742 13.7769 39.5742H10.8545V51H4.04297V18.876H14.3042ZM13.9526 24.457H10.8545V33.9932H13.0957C14.3701 33.9932 15.4761 33.8247 16.4136 33.4878C17.3511 33.1509 18.0762 32.6235 18.5889 31.9058C19.1016 31.188 19.3579 30.2651 19.3579 29.1372C19.3579 27.5552 18.9185 26.3833 18.0396 25.6216C17.1606 24.8452 15.7983 24.457 13.9526 24.457ZM54.0967 38.6733C54.0967 40.7241 53.8184 42.5405 53.2617 44.1226C52.7197 45.7046 51.9214 47.0449 50.8667 48.1436C49.8267 49.2275 48.5669 50.0479 47.0874 50.6045C45.6226 51.1611 43.9673 51.4395 42.1216 51.4395C40.3931 51.4395 38.8037 51.1611 37.3535 50.6045C35.918 50.0479 34.6655 49.2275 33.5962 48.1436C32.5415 47.0449 31.7212 45.7046 31.1353 44.1226C30.564 42.5405 30.2783 40.7241 30.2783 38.6733C30.2783 35.9487 30.7617 33.6416 31.7285 31.752C32.6953 29.8623 34.0723 28.4268 35.8594 27.4453C37.6465 26.4639 39.7778 25.9731 42.2534 25.9731C44.5532 25.9731 46.5894 26.4639 48.3618 27.4453C50.1489 28.4268 51.5479 29.8623 52.5586 31.752C53.584 33.6416 54.0967 35.9487 54.0967 38.6733ZM37.1118 38.6733C37.1118 40.2847 37.2876 41.6396 37.6392 42.7383C37.9907 43.8369 38.54 44.6646 39.2871 45.2212C40.0342 45.7778 41.0083 46.0562 42.2095 46.0562C43.396 46.0562 44.3555 45.7778 45.0879 45.2212C45.835 44.6646 46.377 43.8369 46.7139 42.7383C47.0654 41.6396 47.2412 40.2847 47.2412 38.6733C47.2412 37.0474 47.0654 35.6997 46.7139 34.6304C46.377 33.5464 45.835 32.7334 45.0879 32.1914C44.3408 31.6494 43.3667 31.3784 42.1655 31.3784C40.3931 31.3784 39.104 31.9863 38.2983 33.2021C37.5073 34.418 37.1118 36.2417 37.1118 38.6733ZM73.3447 25.9731C73.6816 25.9731 74.0698 25.9951 74.5093 26.0391C74.9634 26.0684 75.3296 26.1123 75.6079 26.1709L75.1025 32.4551C74.8828 32.3818 74.5679 32.3306 74.1577 32.3013C73.7622 32.2573 73.418 32.2354 73.125 32.2354C72.2607 32.2354 71.4185 32.3452 70.5981 32.5649C69.7925 32.7847 69.0674 33.1436 68.4229 33.6416C67.7783 34.125 67.2656 34.7695 66.8848 35.5752C66.5186 36.3662 66.3354 37.3403 66.3354 38.4976V51H59.6338V26.4346H64.7095L65.6982 30.5654H66.0278C66.5112 29.7305 67.1118 28.9688 67.8296 28.2803C68.562 27.5771 69.3896 27.0205 70.3125 26.6104C71.25 26.1855 72.2607 25.9731 73.3447 25.9731ZM90.4175 46.1001C91.1499 46.1001 91.8604 46.0269 92.5488 45.8804C93.252 45.7339 93.9478 45.5508 94.6362 45.3311V50.3188C93.9185 50.6411 93.0249 50.9048 91.9556 51.1099C90.9009 51.3296 89.7437 51.4395 88.4839 51.4395C87.019 51.4395 85.7007 51.2051 84.5288 50.7363C83.3716 50.2529 82.4561 49.4253 81.7822 48.2534C81.123 47.0669 80.7935 45.4189 80.7935 43.3096V31.4663H77.5854V28.6318L81.2769 26.3906L83.2104 21.2051H87.4951V26.4346H94.3726V31.4663H87.4951V43.3096C87.4951 44.2471 87.7588 44.9502 88.2861 45.4189C88.8281 45.873 89.5386 46.1001 90.4175 46.1001ZM113.203 31.4663H107.402V51H100.701V31.4663H97.0093V28.2363L100.701 26.4346V24.6328C100.701 22.5381 101.052 20.9121 101.755 19.7549C102.473 18.583 103.477 17.7627 104.766 17.2939C106.069 16.8105 107.607 16.5688 109.38 16.5688C110.684 16.5688 111.87 16.6787 112.939 16.8984C114.009 17.1035 114.88 17.3379 115.554 17.6016L113.84 22.5234C113.328 22.3623 112.771 22.2158 112.17 22.084C111.57 21.9521 110.881 21.8862 110.105 21.8862C109.167 21.8862 108.479 22.1719 108.04 22.7432C107.615 23.2998 107.402 24.0176 107.402 24.8965V26.4346H113.203V31.4663ZM139.395 38.6733C139.395 40.7241 139.116 42.5405 138.56 44.1226C138.018 45.7046 137.219 47.0449 136.165 48.1436C135.125 49.2275 133.865 50.0479 132.385 50.6045C130.92 51.1611 129.265 51.4395 127.419 51.4395C125.691 51.4395 124.102 51.1611 122.651 50.6045C121.216 50.0479 119.963 49.2275 118.894 48.1436C117.839 47.0449 117.019 45.7046 116.433 44.1226C115.862 42.5405 115.576 40.7241 115.576 38.6733C115.576 35.9487 116.06 33.6416 117.026 31.752C117.993 29.8623 119.37 28.4268 121.157 27.4453C122.944 26.4639 125.076 25.9731 127.551 25.9731C129.851 25.9731 131.887 26.4639 133.66 27.4453C135.447 28.4268 136.846 29.8623 137.856 31.752C138.882 33.6416 139.395 35.9487 139.395 38.6733ZM122.41 38.6733C122.41 40.2847 122.585 41.6396 122.937 42.7383C123.289 43.8369 123.838 44.6646 124.585 45.2212C125.332 45.7778 126.306 46.0562 127.507 46.0562C128.694 46.0562 129.653 45.7778 130.386 45.2212C131.133 44.6646 131.675 43.8369 132.012 42.7383C132.363 41.6396 132.539 40.2847 132.539 38.6733C132.539 37.0474 132.363 35.6997 132.012 34.6304C131.675 33.5464 131.133 32.7334 130.386 32.1914C129.639 31.6494 128.665 31.3784 127.463 31.3784C125.691 31.3784 124.402 31.9863 123.596 33.2021C122.805 34.418 122.41 36.2417 122.41 38.6733ZM151.633 51H144.932V16.8105H151.633V51ZM165.388 26.4346V51H158.687V26.4346H165.388ZM162.048 16.8105C163.044 16.8105 163.901 17.0449 164.619 17.5137C165.337 17.9678 165.696 18.8247 165.696 20.0845C165.696 21.3296 165.337 22.1938 164.619 22.6772C163.901 23.146 163.044 23.3804 162.048 23.3804C161.038 23.3804 160.173 23.146 159.456 22.6772C158.752 22.1938 158.401 21.3296 158.401 20.0845C158.401 18.8247 158.752 17.9678 159.456 17.5137C160.173 17.0449 161.038 16.8105 162.048 16.8105ZM194.766 38.6733C194.766 40.7241 194.487 42.5405 193.931 44.1226C193.389 45.7046 192.59 47.0449 191.536 48.1436C190.496 49.2275 189.236 50.0479 187.756 50.6045C186.292 51.1611 184.636 51.4395 182.791 51.4395C181.062 51.4395 179.473 51.1611 178.022 50.6045C176.587 50.0479 175.334 49.2275 174.265 48.1436C173.21 47.0449 172.39 45.7046 171.804 44.1226C171.233 42.5405 170.947 40.7241 170.947 38.6733C170.947 35.9487 171.431 33.6416 172.397 31.752C173.364 29.8623 174.741 28.4268 176.528 27.4453C178.315 26.4639 180.447 25.9731 182.922 25.9731C185.222 25.9731 187.258 26.4639 189.031 27.4453C190.818 28.4268 192.217 29.8623 193.228 31.752C194.253 33.6416 194.766 35.9487 194.766 38.6733ZM177.781 38.6733C177.781 40.2847 177.957 41.6396 178.308 42.7383C178.66 43.8369 179.209 44.6646 179.956 45.2212C180.703 45.7778 181.677 46.0562 182.878 46.0562C184.065 46.0562 185.024 45.7778 185.757 45.2212C186.504 44.6646 187.046 43.8369 187.383 42.7383C187.734 41.6396 187.91 40.2847 187.91 38.6733C187.91 37.0474 187.734 35.6997 187.383 34.6304C187.046 33.5464 186.504 32.7334 185.757 32.1914C185.01 31.6494 184.036 31.3784 182.834 31.3784C181.062 31.3784 179.773 31.9863 178.967 33.2021C178.176 34.418 177.781 36.2417 177.781 38.6733Z" fill="white"/>
<path d="M15.5391 60.5781L12.4844 72H11.1484L8.88281 64.3125C8.8151 64.0938 8.75 63.875 8.6875 63.6562C8.63021 63.4323 8.57552 63.2214 8.52344 63.0234C8.47135 62.8203 8.42708 62.6432 8.39062 62.4922C8.35938 62.3359 8.33594 62.2188 8.32031 62.1406C8.3099 62.2188 8.28906 62.3333 8.25781 62.4844C8.23177 62.6354 8.19531 62.8099 8.14844 63.0078C8.10677 63.2057 8.05469 63.4167 7.99219 63.6406C7.9349 63.8646 7.8724 64.0911 7.80469 64.3203L5.60156 72H4.26562L1.23438 60.5781H2.61719L4.45312 67.7422C4.51562 67.9818 4.57292 68.2188 4.625 68.4531C4.68229 68.6823 4.73177 68.9062 4.77344 69.125C4.82031 69.3438 4.86198 69.5573 4.89844 69.7656C4.9349 69.974 4.96875 70.1771 5 70.375C5.02604 70.1719 5.0599 69.9609 5.10156 69.7422C5.14323 69.5182 5.1875 69.2917 5.23438 69.0625C5.28646 68.8333 5.34115 68.6016 5.39844 68.3672C5.46094 68.1328 5.52604 67.8984 5.59375 67.6641L7.64844 60.5781H9.01562L11.1562 67.7188C11.2292 67.9635 11.2969 68.2057 11.3594 68.4453C11.4219 68.6849 11.4766 68.9193 11.5234 69.1484C11.5755 69.3724 11.6198 69.5885 11.6562 69.7969C11.6979 70 11.7344 70.1927 11.7656 70.375C11.8021 70.1198 11.8464 69.8516 11.8984 69.5703C11.9505 69.2891 12.0104 68.9948 12.0781 68.6875C12.151 68.3802 12.2292 68.0625 12.3125 67.7344L14.1484 60.5781H15.5391ZM20.4453 63.2812C21.1745 63.2812 21.7995 63.4427 22.3203 63.7656C22.8411 64.0885 23.2396 64.5417 23.5156 65.125C23.7917 65.7031 23.9297 66.3802 23.9297 67.1562V67.9609H18.0156C18.0312 68.9661 18.2812 69.7318 18.7656 70.2578C19.25 70.7839 19.9323 71.0469 20.8125 71.0469C21.3542 71.0469 21.8333 70.9974 22.25 70.8984C22.6667 70.7995 23.099 70.6536 23.5469 70.4609V71.6016C23.1146 71.7943 22.6849 71.9349 22.2578 72.0234C21.8359 72.112 21.3359 72.1562 20.7578 72.1562C19.9349 72.1562 19.2161 71.9896 18.6016 71.6562C17.9922 71.3177 17.5182 70.8229 17.1797 70.1719C16.8411 69.5208 16.6719 68.724 16.6719 67.7812C16.6719 66.8594 16.8255 66.0625 17.1328 65.3906C17.4453 64.7135 17.8828 64.1927 18.4453 63.8281C19.013 63.4635 19.6797 63.2812 20.4453 63.2812ZM20.4297 64.3438C19.737 64.3438 19.1849 64.5703 18.7734 65.0234C18.362 65.4766 18.1172 66.1094 18.0391 66.9219H22.5703C22.5651 66.4115 22.4844 65.9635 22.3281 65.5781C22.1771 65.1875 21.9453 64.8854 21.6328 64.6719C21.3203 64.4531 20.9193 64.3438 20.4297 64.3438ZM27.4297 59.8438V62.8828C27.4297 63.2318 27.4193 63.5703 27.3984 63.8984C27.3828 64.2266 27.3698 64.4818 27.3594 64.6641H27.4297C27.6641 64.2786 28.0026 63.9531 28.4453 63.6875C28.888 63.4219 29.4531 63.2891 30.1406 63.2891C31.2135 63.2891 32.0677 63.6615 32.7031 64.4062C33.3438 65.1458 33.6641 66.2474 33.6641 67.7109C33.6641 68.6745 33.5182 69.487 33.2266 70.1484C32.9349 70.8099 32.5234 71.3099 31.9922 71.6484C31.4609 71.987 30.8333 72.1562 30.1094 72.1562C29.4323 72.1562 28.875 72.0312 28.4375 71.7812C28.0052 71.526 27.6719 71.2161 27.4375 70.8516H27.3359L27.0703 72H26.1328V59.8438H27.4297ZM29.9297 64.375C29.3099 64.375 28.8177 64.4974 28.4531 64.7422C28.0885 64.9818 27.8255 65.3464 27.6641 65.8359C27.5078 66.3203 27.4297 66.9349 27.4297 67.6797V67.75C27.4297 68.8281 27.6094 69.6536 27.9688 70.2266C28.3281 70.7943 28.9818 71.0781 29.9297 71.0781C30.7266 71.0781 31.3229 70.7865 31.7188 70.2031C32.1198 69.6198 32.3203 68.7865 32.3203 67.7031C32.3203 66.599 32.1224 65.7682 31.7266 65.2109C31.3359 64.6536 30.737 64.375 29.9297 64.375ZM43.1328 72.1562C42.0495 72.1562 41.1901 71.7865 40.5547 71.0469C39.9245 70.3073 39.6094 69.2083 39.6094 67.75C39.6094 66.276 39.9323 65.1641 40.5781 64.4141C41.224 63.6589 42.0833 63.2812 43.1562 63.2812C43.6094 63.2812 44.0052 63.3411 44.3438 63.4609C44.6823 63.5807 44.974 63.7422 45.2188 63.9453C45.4635 64.1432 45.6693 64.3698 45.8359 64.625H45.9297C45.9089 64.4635 45.888 64.2422 45.8672 63.9609C45.8464 63.6797 45.8359 63.4505 45.8359 63.2734V59.8438H47.1328V72H46.0859L45.8906 70.7812H45.8359C45.6745 71.0365 45.4688 71.2682 45.2188 71.4766C44.974 71.6849 44.6797 71.8516 44.3359 71.9766C43.9974 72.0964 43.5964 72.1562 43.1328 72.1562ZM43.3359 71.0781C44.2526 71.0781 44.901 70.8177 45.2812 70.2969C45.6615 69.776 45.8516 69.0026 45.8516 67.9766V67.7422C45.8516 66.6536 45.6693 65.8177 45.3047 65.2344C44.9453 64.651 44.2891 64.3594 43.3359 64.3594C42.5391 64.3594 41.9427 64.6667 41.5469 65.2812C41.151 65.8906 40.9531 66.724 40.9531 67.7812C40.9531 68.8333 41.1484 69.6458 41.5391 70.2188C41.9349 70.7917 42.5339 71.0781 43.3359 71.0781ZM53.1797 63.2812C53.9089 63.2812 54.5339 63.4427 55.0547 63.7656C55.5755 64.0885 55.974 64.5417 56.25 65.125C56.526 65.7031 56.6641 66.3802 56.6641 67.1562V67.9609H50.75C50.7656 68.9661 51.0156 69.7318 51.5 70.2578C51.9844 70.7839 52.6667 71.0469 53.5469 71.0469C54.0885 71.0469 54.5677 70.9974 54.9844 70.8984C55.401 70.7995 55.8333 70.6536 56.2812 70.4609V71.6016C55.849 71.7943 55.4193 71.9349 54.9922 72.0234C54.5703 72.112 54.0703 72.1562 53.4922 72.1562C52.6693 72.1562 51.9505 71.9896 51.3359 71.6562C50.7266 71.3177 50.2526 70.8229 49.9141 70.1719C49.5755 69.5208 49.4062 68.724 49.4062 67.7812C49.4062 66.8594 49.5599 66.0625 49.8672 65.3906C50.1797 64.7135 50.6172 64.1927 51.1797 63.8281C51.7474 63.4635 52.4141 63.2812 53.1797 63.2812ZM53.1641 64.3438C52.4714 64.3438 51.9193 64.5703 51.5078 65.0234C51.0964 65.4766 50.8516 66.1094 50.7734 66.9219H55.3047C55.2995 66.4115 55.2188 65.9635 55.0625 65.5781C54.9115 65.1875 54.6797 64.8854 54.3672 64.6719C54.0547 64.4531 53.6536 64.3438 53.1641 64.3438ZM60.75 72L57.5 63.4375H58.8906L60.7734 68.6172C60.9036 68.9714 61.0365 69.362 61.1719 69.7891C61.3073 70.2161 61.401 70.5599 61.4531 70.8203H61.5078C61.5703 70.5599 61.6745 70.2161 61.8203 69.7891C61.9661 69.3568 62.099 68.9661 62.2188 68.6172L64.1016 63.4375H65.4922L62.2344 72H60.75ZM74.25 67.7031C74.25 68.4062 74.1589 69.0339 73.9766 69.5859C73.7943 70.138 73.5312 70.6042 73.1875 70.9844C72.8438 71.3646 72.4271 71.6562 71.9375 71.8594C71.4531 72.0573 70.9036 72.1562 70.2891 72.1562C69.7161 72.1562 69.1901 72.0573 68.7109 71.8594C68.237 71.6562 67.8255 71.3646 67.4766 70.9844C67.1328 70.6042 66.8646 70.138 66.6719 69.5859C66.4844 69.0339 66.3906 68.4062 66.3906 67.7031C66.3906 66.7656 66.5495 65.9688 66.8672 65.3125C67.1849 64.651 67.638 64.1484 68.2266 63.8047C68.8203 63.4557 69.526 63.2812 70.3438 63.2812C71.125 63.2812 71.8073 63.4557 72.3906 63.8047C72.9792 64.1536 73.4349 64.6589 73.7578 65.3203C74.0859 65.9766 74.25 66.7708 74.25 67.7031ZM67.7344 67.7031C67.7344 68.3906 67.8255 68.987 68.0078 69.4922C68.1901 69.9974 68.4714 70.388 68.8516 70.6641C69.2318 70.9401 69.7214 71.0781 70.3203 71.0781C70.9141 71.0781 71.401 70.9401 71.7812 70.6641C72.1667 70.388 72.4505 69.9974 72.6328 69.4922C72.8151 68.987 72.9062 68.3906 72.9062 67.7031C72.9062 67.0208 72.8151 66.4323 72.6328 65.9375C72.4505 65.4375 72.1693 65.0521 71.7891 64.7812C71.4089 64.5104 70.9167 64.375 70.3125 64.375C69.4219 64.375 68.7682 64.6693 68.3516 65.2578C67.9401 65.8464 67.7344 66.6615 67.7344 67.7031ZM77.7969 72H76.4922V59.8438H77.7969V72ZM83.8359 63.2812C84.5651 63.2812 85.1901 63.4427 85.7109 63.7656C86.2318 64.0885 86.6302 64.5417 86.9062 65.125C87.1823 65.7031 87.3203 66.3802 87.3203 67.1562V67.9609H81.4062C81.4219 68.9661 81.6719 69.7318 82.1562 70.2578C82.6406 70.7839 83.3229 71.0469 84.2031 71.0469C84.7448 71.0469 85.224 70.9974 85.6406 70.8984C86.0573 70.7995 86.4896 70.6536 86.9375 70.4609V71.6016C86.5052 71.7943 86.0755 71.9349 85.6484 72.0234C85.2266 72.112 84.7266 72.1562 84.1484 72.1562C83.3255 72.1562 82.6068 71.9896 81.9922 71.6562C81.3828 71.3177 80.9089 70.8229 80.5703 70.1719C80.2318 69.5208 80.0625 68.724 80.0625 67.7812C80.0625 66.8594 80.2161 66.0625 80.5234 65.3906C80.8359 64.7135 81.2734 64.1927 81.8359 63.8281C82.4036 63.4635 83.0703 63.2812 83.8359 63.2812ZM83.8203 64.3438C83.1276 64.3438 82.5755 64.5703 82.1641 65.0234C81.7526 65.4766 81.5078 66.1094 81.4297 66.9219H85.9609C85.9557 66.4115 85.875 65.9635 85.7188 65.5781C85.5677 65.1875 85.3359 64.8854 85.0234 64.6719C84.7109 64.4531 84.3099 64.3438 83.8203 64.3438ZM93.5469 63.2812C94.6146 63.2812 95.4661 63.6484 96.1016 64.3828C96.737 65.1172 97.0547 66.2214 97.0547 67.6953C97.0547 68.6693 96.9089 69.487 96.6172 70.1484C96.3255 70.8099 95.9141 71.3099 95.3828 71.6484C94.8568 71.987 94.2344 72.1562 93.5156 72.1562C93.0625 72.1562 92.6641 72.0964 92.3203 71.9766C91.9766 71.8568 91.6823 71.6953 91.4375 71.4922C91.1927 71.2891 90.9896 71.0677 90.8281 70.8281H90.7344C90.75 71.0312 90.7682 71.276 90.7891 71.5625C90.8151 71.849 90.8281 72.099 90.8281 72.3125V75.8281H89.5234V63.4375H90.5938L90.7656 64.7031H90.8281C90.9948 64.4427 91.1979 64.2057 91.4375 63.9922C91.6771 63.7734 91.9688 63.6016 92.3125 63.4766C92.6615 63.3464 93.0729 63.2812 93.5469 63.2812ZM93.3203 64.375C92.7266 64.375 92.2474 64.4896 91.8828 64.7188C91.5234 64.9479 91.2604 65.2917 91.0938 65.75C90.9271 66.2031 90.8385 66.7734 90.8281 67.4609V67.7109C90.8281 68.4349 90.9062 69.0469 91.0625 69.5469C91.224 70.0469 91.487 70.4271 91.8516 70.6875C92.2214 70.9479 92.7161 71.0781 93.3359 71.0781C93.8672 71.0781 94.3099 70.9349 94.6641 70.6484C95.0182 70.362 95.2812 69.9635 95.4531 69.4531C95.6302 68.9375 95.7188 68.3464 95.7188 67.6797C95.7188 66.6693 95.5208 65.8672 95.125 65.2734C94.7344 64.6745 94.1328 64.375 93.3203 64.375ZM102.617 63.2812C103.346 63.2812 103.971 63.4427 104.492 63.7656C105.013 64.0885 105.411 64.5417 105.688 65.125C105.964 65.7031 106.102 66.3802 106.102 67.1562V67.9609H100.188C100.203 68.9661 100.453 69.7318 100.938 70.2578C101.422 70.7839 102.104 71.0469 102.984 71.0469C103.526 71.0469 104.005 70.9974 104.422 70.8984C104.839 70.7995 105.271 70.6536 105.719 70.4609V71.6016C105.286 71.7943 104.857 71.9349 104.43 72.0234C104.008 72.112 103.508 72.1562 102.93 72.1562C102.107 72.1562 101.388 71.9896 100.773 71.6562C100.164 71.3177 99.6901 70.8229 99.3516 70.1719C99.013 69.5208 98.8438 68.724 98.8438 67.7812C98.8438 66.8594 98.9974 66.0625 99.3047 65.3906C99.6172 64.7135 100.055 64.1927 100.617 63.8281C101.185 63.4635 101.852 63.2812 102.617 63.2812ZM102.602 64.3438C101.909 64.3438 101.357 64.5703 100.945 65.0234C100.534 65.4766 100.289 66.1094 100.211 66.9219H104.742C104.737 66.4115 104.656 65.9635 104.5 65.5781C104.349 65.1875 104.117 64.8854 103.805 64.6719C103.492 64.4531 103.091 64.3438 102.602 64.3438ZM112.195 63.2812C112.367 63.2812 112.547 63.2917 112.734 63.3125C112.922 63.3281 113.089 63.3516 113.234 63.3828L113.07 64.5859C112.93 64.5495 112.773 64.5208 112.602 64.5C112.43 64.4792 112.268 64.4688 112.117 64.4688C111.773 64.4688 111.448 64.5391 111.141 64.6797C110.839 64.8151 110.573 65.013 110.344 65.2734C110.115 65.5286 109.935 65.8385 109.805 66.2031C109.674 66.5625 109.609 66.9635 109.609 67.4062V72H108.305V63.4375H109.383L109.523 65.0156H109.578C109.755 64.6979 109.969 64.4089 110.219 64.1484C110.469 63.8828 110.758 63.6719 111.086 63.5156C111.419 63.3594 111.789 63.2812 112.195 63.2812Z" fill="white"/>
</svg>
